{"title":"Red Line (2013) 480p WEBRip x264 350MB Dual Audio [Eng - Hindi]","uid":9483896,"size":370192829,"categoryP":"video","categoryS":"movies","magnet":"?xt=urn:btih:1daec1d4a92210474d2647c7803ae389fa0d06e6&amp;dn=Red+Line+%282013%29+480p+WEBRip+x264+350MB+Dual+Audio+%5BEng+-+Hindi%5D+&amp;tr=udp%3A%2F%2Ftracker.openbittorrent.com%3A80&amp;tr=udp%3A%2F%2Fopen.demonii.com%3A1337&amp;tr=udp%3A%2F%2Ftracker.coppersurfer.tk%3A6969&amp;tr=udp%3A%2F%2Fexodus.desync.com%3A6969","seeders":2,"leechers":1,"uploader":"Chaudhary1","files":3,"time":1389852182,"description":" &lt;a href=&quot;http://img843.imageshack.us/img843/3355/f8rv.png&quot; rel=&quot;nofollow&quot; target=&quot;_NEW&quot;&gt;http://img843.imageshack.us/img843/3355/f8rv.png&lt;/a&gt;\n\n\n\n Red Line (2013) 480p WEBRip x264 350MB Dual Audio [Eng - Hindi] Chaudhary ExD-XMR Exclsuive\n &lt;a href=&quot;\nhttp://i.imgur.com/JzL0Bfm.jpg&quot; rel=&quot;nofollow&quot; target=&quot;_NEW&quot;&gt;\nhttp://i.imgur.com/JzL0Bfm.jpg&lt;/a&gt;\n\n\n\nComplete name                            :Red Line (2013) 480p WEBRip x264 350MB Dual Audio [Eng - Hindi] Chaudhary ExD-XMR Exclsuive.mkv\nFormat                                   : Matroska\nFormat version                           : Version 2\nFile size                                : 347 MiB\nDuration                                 : 1h 26mn\nOverall bit rate                         : 559 Kbps\nMovie name                               : Chaudharyâ„¢\n\n\nVideo\nID                                       : 1\nFormat                                   : AVC\nFormat/Info                              : Advanced Video Codec\nFormat profile                           : &lt;a class=&quot;__cf_email__&quot; href=&quot;/cdn-cgi/l/email-protection&quot; data-cfemail=&quot;b7ffded0dff7fb849986&quot;&gt;[email&amp;#160;protected]&lt;/a&gt;&lt;script cf-hash='f9e31' type=&quot;text/javascript&quot;&gt;\n/* &lt;![CDATA[ */!function(){try{var t=&quot;currentScript&quot;in document?document.currentScript:function(){for(var t=document.getElementsByTagName(&quot;script&quot;),e=t.length;e--;)if(t[e].getAttribute(&quot;cf-hash&quot;))return t[e]}();if(t&amp;&amp;t.previousSibling){var e,r,n,i,c=t.previousSibling,a=c.getAttribute(&quot;data-cfemail&quot;);if(a){for(e=&quot;&quot;,r=parseInt(a.substr(0,2),16),n=2;a.length-n;n+=2)i=parseInt(a.substr(n,2),16)^r,e+=String.fromCharCode(i);e=document.createTextNode(e),c.parentNode.replaceChild(e,c)}}}catch(u){}}();/* ]]&gt; */&lt;/script&gt;\nFormat settings, CABAC                   : Yes\nFormat settings, ReFrames                : 4 frames\nMuxing mode                              : Header stripping\nCodec ID                                 : V_MPEG4/ISO/AVC\nDuration                                 : 1h 26mn\nBit rate                                 : 462 Kbps\nWidth                                    : 720 pixels\nHeight                                   : 350 pixels\nDisplay aspect ratio                     : 16:9\nFrame rate mode                          : Constant\nFrame rate                               : 23.976 fps\nColor space                              : YUV\nChroma subsampling                       : 4:2:0\nBit depth                                : 8 bits\nScan type                                : Progressive\nBits/(Pixel*Frame)                       : 0.076\nStream size                              : 281 MiB (81%)\nTitle                                    : Chaudharyâ„¢\nWriting library                          : x264 core 138 r2358 \nLanguage                                 : English\nDefault                                  : Yes\nForced                                   : No\n\nAudio #1\nID                                       : 2\nFormat                                   : MPEG Audio\nFormat version                           : Version 2\nFormat profile                           : Layer 3\nMode                                     : Joint stereo\nMode extension                           : MS Stereo\nMuxing mode                              : Header stripping\nCodec ID                                 : A_MPEG/L3\nCodec ID/Hint                            : MP3\nDuration                                 : 1h 26mn\nBit rate mode                            : Constant\nChannel count                            : 2 channels\nCompression mode                         : Lossy\nStream size                              : 19.9 MiB (6%)\nTitle                                    : Chaudharyâ„¢\nWriting library                          : LAME3.99.5\nLanguage                                 : English\nDefault                                  : Yes\nForced                                   : No\n\nAudio #2\nID                                       : 3\nFormat                                   : AC-3\nFormat/Info                              : Audio Coding 3\nMode extension                           : CM (complete main)\nFormat settings, Endianness              : Big\nMuxing mode                              : Header stripping\nCodec ID                                 : A_AC3\nDuration                                 : 1h 26mn\nBit rate mode                            : Constant\nBit rate                                 : 64.0 Kbps\nChannel count                            : 2 channels\nChannel positions                        : Front: L R\nSampling rate                            : 48.0 KHz\nBit depth                                : 16 bits\nCompression mode                         : Lossy\nStream size                              : 39.8 MiB (11%)\nTitle                                    : Chaudharyâ„¢\nLanguage                                 : Hindi\nDefault                                  : No\nForced                                   : No\n\n &lt;a href=&quot;\nhttp://i.imgur.com/XcFnm0q.png&quot; rel=&quot;nofollow&quot; target=&quot;_NEW&quot;&gt;\nhttp://i.imgur.com/XcFnm0q.png&lt;/a&gt; &lt;a href=&quot;\nhttp://i.imgur.com/IsQFyXU.png&quot; rel=&quot;nofollow&quot; target=&quot;_NEW&quot;&gt;\nhttp://i.imgur.com/IsQFyXU.png&lt;/a&gt; &lt;a href=&quot;\nhttp://i.imgur.com/WqazgGm.png&quot; rel=&quot;nofollow&quot; target=&quot;_NEW&quot;&gt;\nhttp://i.imgur.com/WqazgGm.png&lt;/a&gt; &lt;a href=&quot;\nhttp://i.imgur.com/aNDwonM.png&quot; rel=&quot;nofollow&quot; target=&quot;_NEW&quot;&gt;\nhttp://i.imgur.com/aNDwonM.png&lt;/a&gt; &lt;a href=&quot;\nhttp://i.imgur.com/qGRaKeM.png&quot; rel=&quot;nofollow&quot; target=&quot;_NEW&quot;&gt;\nhttp://i.imgur.com/qGRaKeM.png&lt;/a&gt; &lt;a href=&quot;\nhttp://i.imgur.com/XBTMQLo.png&quot; rel=&quot;nofollow&quot; target=&quot;_NEW&quot;&gt;\nhttp://i.imgur.com/XBTMQLo.png&lt;/a&gt;\n\n\nThanks To BHATTI87 For Hindi Audio.","torrent":{"xt":"urn:btih:1daec1d4a92210474d2647c7803ae389fa0d06e6","amp;dn":"Red+Line+%282013%29+480p+WEBRip+x264+350MB+Dual+Audio+%5BEng+-+Hindi%5D+","amp;tr":["udp%3A%2F%2Ftracker.openbittorrent.com%3A80","udp%3A%2F%2Fopen.demonii.com%3A1337","udp%3A%2F%2Ftracker.coppersurfer.tk%3A6969","udp%3A%2F%2Fexodus.desync.com%3A6969"],"infoHash":"1daec1d4a92210474d2647c7803ae389fa0d06e6","infoHashBuffer":{"type":"Buffer","data":[29,174,193,212,169,34,16,71,77,38,71,199,128,58,227,137,250,13,6,230]},"announce":[],"urlList":[]}}